<svg width="144" height="144" xmlns="http://www.w3.org/2000/svg"><path fill="#efefef" stroke="#efefef" stroke-width=".75" d="M58.237 68.034h-3.62L47.4 47.252l.47-.694h6.151V32.273h-8.853v35.762h-3.447V29.223h12.995q1.215 0 1.984.769t.768 1.984v14.73q0 2.803-3.77 2.803-.371 0-1.09-.025-.72-.05-1.042-.05 3.348 9.275 6.671 18.6zm18.466 0h-3.422l-1.364-8.63h-7.713l-1.364 8.63h-3.323v-.099l6.919-38.811h3.398zm-5.233-11.68l-3.397-21.03-3.422 21.03zm30.768-27.13l-5.282 38.91h-2.802L89.938 38.87q-.025-.768-.1-2.281 0 .793-.099 2.281l-4.216 29.264h-2.802l-5.282-38.91h3.422l3.298 27.998q.025.943.1 2.778-.025-.942.099-2.778l4.017-27.998h2.951l3.993 27.998q.05.943.1 2.778 0-.942.123-2.778l3.299-27.998zM43.333 111.91q0 1.228-.777 2.004-.776.777-2.004.777H27.623V75.48h12.829q1.228 0 2.004.777.777.777.777 2.004v11.651q0 1.554-1.403 2.606l-2.756 1.654 2.957 1.904q1.302.802 1.302 2.506zm-3.608-21.548V78.561h-8.62v14.157h5.137zm.1 21.248V98.055l-3.533-2.306h-5.186v15.86zm23.065 3.078h-3.457l-1.378-8.719h-7.792l-1.378 8.72h-3.358v-.101l6.99-39.212h3.433zm-5.286-11.801L54.17 81.639l-3.457 21.248zm21.161-24.329h-6.063v36.13h-3.483v-36.13h-6.114v-3.082h15.66zM96.22 111.91q0 1.228-.802 2.004-.802.777-2.03.777H83.291q-1.228 0-2.004-.777-.777-.776-.777-2.004V78.26q0-1.227.777-2.004.776-.777 2.004-.777h10.097q1.228 0 2.03.777.802.777.802 2.004v9.12h-3.508v-8.82h-8.72v33.05h8.72v-9.647h3.508zm20.156 2.778h-3.482V95.846h-9.447v18.842h-3.482V75.476h3.482v17.238h9.447V75.476h3.482z"/></svg>