<svg xmlns="http://www.w3.org/2000/svg" width="144" height="144"><path fill="#EFEFEF" fill-rule="evenodd" d="M118 90H26v6h92v-6zm8-40H74v36h52V50zm-56 0H18v36h52V50zm52 4H78v28h44V54zm-56 0H22v28h44V54zM33.995 77.998l21.994.001-.001-.689c-.269-.779-.896-1.541-1.881-2.288-.985-.747-2.256-1.362-3.811-1.846-1.556-.484-3.324-.726-5.304-.726-1.97 0-3.733.242-5.288.726-1.556.484-2.829 1.099-3.819 1.846-.991.747-1.62 1.504-1.889 2.272l-.001.704zm10.997-8.23c1.033.01 1.97-.245 2.809-.765a5.598 5.598 0 001.994-2.138c.49-.905.735-1.92.735-3.045a5.868 5.868 0 00-.743-2.919 5.874 5.874 0 00-1.994-2.122c-.834-.532-1.768-.797-2.801-.797-1.034 0-1.97.265-2.81.797a5.845 5.845 0 00-2.002 2.122 5.743 5.743 0 00-.727 2.919c.011 1.125.261 2.135.751 3.029a5.659 5.659 0 001.986 2.122c.834.521 1.768.786 2.802.797zM118 58h-10v6h10v-6z"/></svg>