<svg width="144" height="144" xmlns="http://www.w3.org/2000/svg"><rect fill="#517a96" width="144" height="144" rx="22"/><g fill="#efefef" stroke="#efefef" stroke-width="1.5"><path d="M81.144 84.193V59.807H53.711v24.386zm3.049-19.813l9.144-4.573v24.386l-9.144-4.573v6.097a1.524 1.524 0 01-1.525 1.524h-30.48a1.524 1.524 0 01-1.525-1.524V58.283a1.524 1.524 0 011.524-1.524h30.481a1.524 1.524 0 011.525 1.524zm0 3.407v8.426l6.096 3.048V64.739zm-27.434-4.931h9.145v3.048h-9.145z"/><path d="M40.413 85.923a34.433 34.433 0 01-2.994-12.83c-.353-9.203 2.9-17.991 9.157-24.747 6.258-6.756 14.772-10.67 23.975-11.023 8.861-.339 17.34 2.666 23.988 8.478l-8.285.317a1.32 1.32 0 00.05 2.637h.051l11.405-.437.042.002.051-.001a1.32 1.32 0 001.268-1.369l-.438-11.45a1.325 1.325 0 00-1.369-1.268 1.32 1.32 0 00-1.268 1.368l.317 8.29c-7.17-6.308-16.335-9.57-25.913-9.203-9.907.379-19.072 4.593-25.81 11.866-6.736 7.273-10.237 16.734-9.858 26.64a37.053 37.053 0 003.227 13.815c.038.148.1.287.184.41l.001.003h0a1.337 1.337 0 002.218-1.497zm65.583-28.924a1.326 1.326 0 00-.13-.29l-.014-.031-.004.002a1.335 1.335 0 00-2.468.712c0 .294.096.565.256.785 5.434 12.224 3.461 27.057-6.19 37.476-6.257 6.756-14.772 10.67-23.974 11.022-8.86.34-17.339-2.666-23.988-8.477l8.285-.317a1.32 1.32 0 10-.101-2.637l-11.416.437-.082-.002a1.32 1.32 0 00-1.268 1.37l.438 11.45a1.32 1.32 0 001.318 1.269l.051-.001a1.32 1.32 0 001.268-1.37l-.318-8.29c6.808 5.989 15.41 9.233 24.46 9.233.483 0 .969-.01 1.454-.028 9.906-.38 19.072-4.593 25.81-11.867C109.798 86.2 111.902 70.177 105.995 57z"/></g></svg>