<svg xmlns="http://www.w3.org/2000/svg" width="144" height="144"><rect fill="#1f2e38" width="144" height="144" rx="22"/><g fill="#787878"><path d="M88 72L64 86V58l24 14z"/><path d="M81.383 96.253l3.03 5.247A31.867 31.867 0 0172 104c-1.476 0-2.93-.1-4.354-.294l1.568-5.854c.915.098 1.845.148 2.786.148 3.308 0 6.472-.619 9.383-1.747zm-24.718-3.261a25.966 25.966 0 004.821 2.791l-1.568 5.854a31.965 31.965 0 01-7.536-4.362l4.283-4.283zM103.752 76c-1.093 8.75-5.725 16.406-12.416 21.492l-3.029-5.247c4.928-3.975 8.376-9.711 9.387-16.245h6.058zm-63.504-8C42.219 52.224 55.693 40 72 40s29.781 12.224 31.752 28h-6.058C95.767 55.546 84.989 46 72 46c-12.989 0-23.767 9.546-25.694 22H54L43 82 32 68h8.248z"/></g></svg>