<svg xmlns="http://www.w3.org/2000/svg" xmlns:xlink="http://www.w3.org/1999/xlink" version="1.1" viewBox="25 25 74 74" xml:space="preserve">
	<g transform="matrix(0.04 0 0 0.04 60.1 60.43)">
		<path
			style="stroke: #EFEFEF; stroke-width: 30; stroke-dasharray: none; stroke-linecap: butt; stroke-dashoffset: 0; stroke-linejoin: miter; stroke-miterlimit: 4; fill: #EFEFEF; fill-rule: nonzero; opacity: 1;"
			transform=" translate(-512, -512)"
			d="M 704 768 V 256 H 128 v 512 h 576 z m 64 -416 l 192 -96 v 512 l -192 -96 v 128 a 32 32 0 0 1 -32 32 H 96 a 32 32 0 0 1 -32 -32 V 224 a 32 32 0 0 1 32 -32 h 640 a 32 32 0 0 1 32 32 v 128 z m 0 71.552 v 176.896 l 128 64 V 359.552 l -128 64 z M 192 320 h 192 v 64 H 192 v -64 z"
			stroke-linecap="round" />
	</g>
	<g transform="matrix(0.08 0 0 0.08 60.25 60.25)">
		<g style="">
			<g transform="matrix(0.44 0 0 0.44 -53.14 -114.23)" id="REFRESH">
				<path
					style="stroke: #EFEFEF; stroke-width: 40; stroke-dasharray: none; stroke-linecap: butt; stroke-dashoffset: 0; stroke-linejoin: miter; stroke-miterlimit: 4; fill: #EFEFEF; fill-rule: nonzero; opacity: 1;"
					transform=" translate(-780.44, -642.98)"
					d="M 147.558 1234.803 c -42.809 -95.198 -67.328 -198.696 -71.438 -306.137 c -8.405 -219.555 69.194 -429.247 218.505 -590.444 C 443.93 177.034 647.075 83.629 866.635 75.225 c 211.431 -8.08 413.71 63.609 572.343 202.278 l -197.662 7.562 c -17.369 0.667 -30.911 15.281 -30.248 32.652 c 0.649 16.967 14.604 30.272 31.43 30.272 c 0.41 0 0.817 0 1.226 -0.018 l 272.117 -10.417 c 0.328 0.018 0.65 0.053 0.982 0.053 c 0.408 0 0.817 -0.009 1.227 -0.026 c 17.37 -0.659 30.911 -15.281 30.25 -32.653 l -10.448 -273.207 c -0.664 -17.372 -15.474 -30.875 -32.655 -30.25 c -17.371 0.666 -30.914 15.286 -30.25 32.657 l 7.561 197.786 C 1311.412 81.416 1092.766 3.566 864.228 12.322 C 627.864 21.37 409.175 121.919 248.439 295.444 C 87.704 468.98 4.167 694.718 13.213 931.072 c 4.426 115.696 30.878 227.107 76.989 329.604 c 0.922 3.539 2.406 6.85 4.399 9.802 c 0.009 0.016 0.018 0.034 0.027 0.052 l 0.008 -0.009 c 5.748 8.44 15.431 13.99 26.408 13.99 c 17.631 0 31.911 -14.289 31.911 -31.914 c 0 -6.587 -1.999 -12.7 -5.416 -17.784 L 147.558 1234.803 z"
					stroke-linecap="round" />
			</g>
			<g transform="matrix(0.44 0 0 0.44 53.25 114.56)" id="REFRESH">
				<path
					style="stroke: #EFEFEF; stroke-width: 40; stroke-dasharray: none; stroke-linecap: butt; stroke-dashoffset: 0; stroke-linejoin: miter; stroke-miterlimit: 4; fill: #EFEFEF; fill-rule: nonzero; opacity: 1;"
					transform=" translate(-1019.81, -1157.77)"
					d="M 1709.859 539.519 c -0.75 -2.45 -1.817 -4.76 -3.104 -6.921 c -0.113 -0.245 -0.22 -0.491 -0.334 -0.737 l -0.083 0.053 c -5.651 -8.958 -15.605 -14.93 -26.982 -14.93 c -17.619 0 -31.92 14.288 -31.92 31.914 c 0 7.008 2.289 13.472 6.121 18.733 c 129.647 291.647 82.579 645.552 -147.685 894.139 c -149.311 161.198 -352.457 254.597 -572.01 263.001 c -211.414 8.079 -413.702 -63.61 -572.335 -202.271 l 197.656 -7.572 c 17.372 -0.667 30.914 -15.279 30.25 -32.65 c -0.668 -17.372 -15.352 -30.817 -32.656 -30.256 l -272.366 10.426 c -0.654 -0.019 -1.304 -0.054 -1.967 -0.036 c -17.371 0.668 -30.913 15.289 -30.25 32.661 l 10.459 273.204 c 0.65 16.967 14.604 30.272 31.432 30.272 c 0.408 0 0.816 -0.009 1.225 -0.018 c 17.371 -0.667 30.913 -15.289 30.25 -32.66 l -7.574 -197.802 c 162.422 142.869 367.644 220.274 583.58 220.274 c 11.531 0 23.119 -0.228 34.702 -0.667 c 236.359 -9.046 455.05 -109.594 615.789 -283.128 C 1800.597 1236.227 1850.813 853.956 1709.859 539.519 z"
					stroke-linecap="round" />
			</g>
		</g>
	</g>
</svg>