<svg xmlns="http://www.w3.org/2000/svg" width="144" height="144"><rect fill="#517a96" width="144" height="144" rx="22"/><g fill="#EFEFEF" fill-rule="evenodd"><path d="M81.907 52.507a5.512 5.512 0 00-5.527 5.521v.91l4.616 3.001v-.6c0-2.337 2.035-4.222 4.568-4.222h35.181c2.534 0 4.574 1.885 4.574 4.222v21.387c0 2.338-2.04 4.217-4.574 4.217h-35.18c-2.534 0-4.569-1.88-4.569-4.217v-3.582l-4.616 2.995v3.893c0 3.06 2.467 5.52 5.527 5.52h42.495c3.06 0 5.521-2.46 5.521-5.52V58.028c0-3.06-2.46-5.52-5.521-5.52z"/><path d="M60.182 76.302h11.525v5.763L88.995 70.54 71.707 59.015v5.762H60.182z"/><path d="M19.604 52.447a5.512 5.512 0 00-5.527 5.521v28.004a5.517 5.517 0 005.527 5.527h42.495a5.512 5.512 0 005.52-5.527v-7.373h-9.743V62.465h9.744v-4.497c0-3.06-2.461-5.52-5.522-5.52z"/></g></svg>