<svg xmlns="http://www.w3.org/2000/svg" width="144" height="144">
	<rect fill="#517a96" width="144" height="144" rx="22" />
	<g fill="#EFEFEF" fill-rule="evenodd" transform="scale(1.2, 1.2) translate(24 24)">
		<path
			d="M42.0504 11.25C42.0504 10.0074 43.0578 9 44.3004 9H60.75C61.9927 9 63 10.0074 63 11.25C63 12.4926 61.9927 13.5 60.75 13.5H44.3004C43.0578 13.5 42.0504 12.4926 42.0504 11.25ZM42.0504 27.7459C42.0504 26.5033 43.0578 25.4959 44.3004 25.4959H60.75C61.9927 25.4959 63 26.5033 63 27.7459C63 28.9885 61.9927 29.9959 60.75 29.9959H44.3004C43.0578 29.9959 42.0504 28.9885 42.0504 27.7459ZM11.25 41.9918C10.0074 41.9918 9 42.9992 9 44.2418C9 45.4844 10.0074 46.4918 11.25 46.4918H60.75C61.9926 46.4918 63 45.4844 63 44.2418C63 42.9992 61.9926 41.9918 60.75 41.9918H11.25ZM9 60.75C9 59.5074 10.0074 58.5 11.25 58.5H33.7778C35.0205 58.5 36.0278 59.5074 36.0278 60.75C36.0278 61.9926 35.0205 63 33.7778 63H11.25C10.0074 63 9 61.9926 9 60.75ZM13.5 9C11.0147 9 9 10.7695 9 12.9523V24.7753C9 25.515 9.29526 26.2313 9.8344 26.7995L17.4844 34.8623C18.9237 36.3792 21.5763 36.3792 23.0156 34.8623L30.6656 26.7995C31.2047 26.2313 31.5 25.515 31.5 24.7753V12.9523C31.5 10.7695 29.4853 9 27 9H13.5ZM25.65 12.9523C26.3956 12.9523 27 13.5568 27 14.3023V23.9506C27 24.2964 26.8673 24.629 26.6293 24.8798L21.2293 30.5712C20.697 31.1323 19.803 31.1323 19.2707 30.5712L13.8707 24.8798C13.6327 24.629 13.5 24.2964 13.5 23.9506V14.3023C13.5 13.5568 14.1044 12.9523 14.85 12.9523L25.65 12.9523Z" />
	</g>
</svg>