<svg width="144" height="144" xmlns="http://www.w3.org/2000/svg"><rect fill="#517a96" width="144" height="144" rx="22"/><g fill="#efefef" stroke="#efefef"><path d="M40.413 85.923a34.433 34.433 0 01-2.994-12.83c-.353-9.203 2.9-17.991 9.157-24.747 6.258-6.756 14.772-10.67 23.975-11.023 8.861-.339 17.34 2.666 23.988 8.478l-8.285.317a1.32 1.32 0 00.05 2.637h.051l11.405-.437.042.002.051-.001a1.32 1.32 0 001.268-1.369l-.438-11.45a1.325 1.325 0 00-1.369-1.268 1.32 1.32 0 00-1.268 1.368l.317 8.29c-7.17-6.308-16.335-9.57-25.913-9.203-9.907.379-19.072 4.593-25.81 11.866-6.736 7.273-10.237 16.734-9.858 26.64a37.053 37.053 0 003.227 13.815c.038.148.1.287.184.41l.001.003a1.338 1.338 0 002.218-1.497zm65.583-28.924a1.326 1.326 0 00-.13-.29l-.014-.031-.004.002a1.335 1.335 0 00-2.468.712c0 .294.096.565.256.785 5.434 12.224 3.461 27.057-6.19 37.476-6.257 6.756-14.772 10.67-23.974 11.022-8.86.34-17.339-2.666-23.988-8.477l8.285-.317a1.32 1.32 0 10-.101-2.637l-11.416.437-.082-.002a1.32 1.32 0 00-1.268 1.37l.438 11.45a1.32 1.32 0 001.318 1.269l.051-.001a1.32 1.32 0 001.268-1.37l-.318-8.29c6.808 5.989 15.41 9.233 24.46 9.233.483 0 .969-.01 1.454-.028 9.906-.38 19.072-4.593 25.81-11.867C109.798 86.2 111.902 70.177 105.995 57z" stroke-width="1.5"/><path d="M94.104 72a22.104 22.104 0 11-22.738-22.079 4.908 4.908 0 011.26 0 22.093 22.093 0 0121.478 22.077zM64.601 89.5q.71.3 1.438.54a32.867 32.867 0 01-4.389-16.53h-8.6A19.03 19.03 0 0064.602 89.5zM54.483 64.608a18.782 18.782 0 00-1.427 5.813h8.594a33.03 33.03 0 014.328-16.445q-.696.232-1.377.52a19.08 19.08 0 00-10.118 10.112zm24.765 5.813a40.219 40.219 0 00-.729-6.45 27.493 27.493 0 00-1.99-6.31c-1.248-2.657-2.818-4.391-4.18-4.654a23.643 23.643 0 00-.706 0c-1.363.263-2.932 1.997-4.18 4.658a27.493 27.493 0 00-1.988 6.31 40.216 40.216 0 00-.729 6.446zm-2.72 15.848a27.484 27.484 0 001.991-6.31 40.241 40.241 0 00.726-6.447H64.75a40.238 40.238 0 00.729 6.45 27.484 27.484 0 001.988 6.307c1.36 2.892 3.096 4.69 4.534 4.69s3.175-1.798 4.531-4.69zm12.989-6.874a18.81 18.81 0 001.432-5.883h-8.605a32.862 32.862 0 01-4.389 16.534q.729-.24 1.444-.542a19.08 19.08 0 0010.118-10.11zm-10.118-24.9a19.041 19.041 0 00-1.385-.522 33.024 33.024 0 014.328 16.445h8.602a19.027 19.027 0 00-11.545-15.922z" stroke-width=".5"/></g></svg>