<svg xmlns="http://www.w3.org/2000/svg" xmlns:xlink="http://www.w3.org/1999/xlink" viewBox="0 0 144 144">
	<rect fill="#2b3e4b" fill-rule="nonzero" width="144" height="144" rx="22" />
	<g fill="#a0a0a0" fill-rule="evenodd">
		<path
			d="m 81.90745,52.507057 c -3.06024,0 -5.52697,2.460733 -5.52697,5.520916 v 0.909402 l 4.61574,3.001666 v -0.599712 c 0,-2.337399 2.03463,-4.222581 4.56808,-4.222579 h 35.18081 c 2.53347,0 4.57408,1.88518 4.57408,4.222579 v 21.386852 c 0,2.337401 -2.04061,4.216614 -4.57408,4.216624 H 85.5643 c -2.53345,0 -4.56808,-1.879223 -4.56808,-4.216624 v -3.582595 l -4.61574,2.995708 v 3.892294 c 0,3.060178 2.46673,5.520912 5.52697,5.520912 H 124.402 c 3.0602,0 5.521,-2.460734 5.521,-5.520912 V 58.027973 c 0,-3.060183 -2.4608,-5.520916 -5.521,-5.520916 z" />
		<path
			d="M 60.18225,76.302087 H 71.7074 v 5.762467 L 88.99512,70.539613 71.7074,59.014667 v 5.76247 H 60.18225 Z" />
		<path
			d="m 19.60397,52.4475 c -3.060237,0 -5.52697,2.460733 -5.52697,5.520913 v 28.003615 c 0,3.060178 2.466733,5.526872 5.52697,5.526872 H 62.0985 c 3.06024,0 5.52102,-2.466694 5.52102,-5.526872 v -7.37313 H 57.87585 V 62.464955 h 9.74367 v -4.496542 c 0,-3.06018 -2.46078,-5.520913 -5.52102,-5.520913 z" />
	</g>
</svg>