<svg xmlns="http://www.w3.org/2000/svg" width="144" height="144" viewBox="34 34 76 76">
	<path fill="#efefef"
		d="M 72 11.369141 C 38.514104 11.369141 11.369141 38.514104 11.369141 72 C 11.369141 105.4859 38.514104 132.63086 72 132.63086 C 73.904224 132.63086 75.786018 132.53702 77.644531 132.36328 A 39.019903 39.577333 0 0 1 72.929688 125.03125 C 72.619568 125.03697 72.311495 125.05273 72 125.05273 C 42.699841 125.05273 18.947266 101.30016 18.947266 72 C 18.947266 42.699841 42.699841 18.947266 72 18.947266 C 101.20846 18.947266 124.89689 42.5529 125.04492 71.726562 A 39.019903 39.577333 0 0 1 132.44727 76.554688 C 132.55978 75.050141 132.63086 73.533543 132.63086 72 C 132.63086 38.514104 105.4859 11.369141 72 11.369141 z M 72 34.105469 C 51.071315 34.105469 34.105469 51.071315 34.105469 72 C 34.105469 91.859547 49.386692 108.13235 68.830078 109.74414 A 39.019903 39.577333 0 0 1 68.75 107.21094 A 39.019903 39.577333 0 0 1 107.76953 67.634766 A 39.019903 39.577333 0 0 1 109.64258 67.681641 C 107.49824 48.787471 91.467744 34.105469 72 34.105469 z"
		transform="matrix(0.52777778,0,0,0.52777778,34,34)" />
	<path fill="#efefef" fill-rule="nonzero"
		d="m 91.270483,72.085134 c 10.263667,0 18.596977,8.333294 18.596977,18.596956 0,10.26367 -8.33331,18.59697 -18.596977,18.59697 -10.263662,0 -18.596957,-8.3333 -18.596957,-18.59697 0,-10.263662 8.333295,-18.596956 18.596957,-18.596956 z m -1.859694,11.158173 h -5.57909 v 14.877569 h 5.57909 z m 9.298475,0 H 93.13018 v 14.877569 h 5.579084 z" />
</svg>