<svg xmlns="http://www.w3.org/2000/svg" width="144" height="144" viewBox="26 26 90 90"><g fill="#EFEFEF" fill-rule="evenodd"><path d="M112 48c0-4.415-3.585-8-8-8H40c-4.415 0-8 3.585-8 8v48c0 4.415 3.585 8 8 8h64c4.415 0 8-3.585 8-8V48zm-4 0c0-2.208-1.792-4-4-4H40c-2.208 0-4 1.792-4 4v48c0 2.208 1.792 4 4 4h64c2.208 0 4-1.792 4-4V48zM46 91a1 1 0 00-1-1h-2a1 1 0 00-1 1v2a1 1 0 001 1h2a1 1 0 001-1v-2zm56 0a1 1 0 00-1-1h-2a1 1 0 00-1 1v2a1 1 0 001 1h2a1 1 0 001-1v-2zm-56-8a1 1 0 00-1-1h-2a1 1 0 00-1 1v2a1 1 0 001 1h2a1 1 0 001-1v-2zm56 0a1 1 0 00-1-1h-2a1 1 0 00-1 1v2a1 1 0 001 1h2a1 1 0 001-1v-2zm-56-8a1 1 0 00-1-1h-2a1 1 0 00-1 1v2a1 1 0 001 1h2a1 1 0 001-1v-2zm56 0a1 1 0 00-1-1h-2a1 1 0 00-1 1v2a1 1 0 001 1h2a1 1 0 001-1v-2zm-56-8a1 1 0 00-1-1h-2a1 1 0 00-1 1v2a1 1 0 001 1h2a1 1 0 001-1v-2zm56 0a1 1 0 00-1-1h-2a1 1 0 00-1 1v2a1 1 0 001 1h2a1 1 0 001-1v-2zm-56-8a1 1 0 00-1-1h-2a1 1 0 00-1 1v2a1 1 0 001 1h2a1 1 0 001-1v-2zm56 0a1 1 0 00-1-1h-2a1 1 0 00-1 1v2a1 1 0 001 1h2a1 1 0 001-1v-2zm-56-8a1 1 0 00-1-1h-2a1 1 0 00-1 1v2a1 1 0 001 1h2a1 1 0 001-1v-2zm56 0a1 1 0 00-1-1h-2a1 1 0 00-1 1v2a1 1 0 001 1h2a1 1 0 001-1v-2z"/><path d="M86 72L62 86V58l24 14z"/></g></svg>