<svg xmlns="http://www.w3.org/2000/svg" width="144" height="144"><rect fill="#517a96" width="144" height="144" rx="22"/><path fill="#EFEFEF" fill-rule="evenodd" d="M39 49a2 2 0 01-2 2h-8a2 2 0 01-2-2v-8a2 2 0 012-2h8a2 2 0 012 2v8zm2-6h32.008c.982 0 1.817.199 2.498.463 1.333.517 2.098 1.299 2.244 1.459L86.828 54H94c3.311 0 6 2.689 6 6v5.213l10.932-6.904A2.001 2.001 0 01114 60v24a2 2 0 01-3.068 1.691L100 78.787V84c0 3.311-2.689 6-6 6h-7.175l-9.067 9.066c-.234.255-1.881 1.931-4.75 1.931H41v-4h32.008c1.148 0 1.801-.634 1.801-.634a1.85 1.85 0 01.075-.079L81.168 90H70c-3.311 0-6-2.689-6-6V73.997H41v-4h23V60c0-3.311 2.689-6 6-6h11.172l-6.288-6.287a1.87 1.87 0 01-.075-.08s-.272-.255-.751-.441a2.89 2.89 0 00-1.05-.192H41v-4zm-2 60a2 2 0 01-2 2h-8a2 2 0 01-2-2v-8a2 2 0 012-2h8a2 2 0 012 2v8zm0-27a2 2 0 01-2 2h-8a2 2 0 01-2-2v-8a2 2 0 012-2h8a2 2 0 012 2v8zm57-16a2 2 0 00-2-2H70a2 2 0 00-2 2v24a2 2 0 002 2h24a2 2 0 002-2V60zm-5 3v18H73V63h18zm-4 4H77v10h10V67z"/></svg>