<svg xmlns="http://www.w3.org/2000/svg" width="144" height="144" viewBox="32 32 90 90"><g fill="#EFEFEF"><path d="M88 72L64 86V58l24 14z"/><path d="M81.383 96.253l3.03 5.247A31.867 31.867 0 0172 104c-1.476 0-2.93-.1-4.354-.294l1.568-5.854c.915.098 1.845.148 2.786.148 3.308 0 6.472-.619 9.383-1.747zm-24.718-3.261a25.966 25.966 0 004.821 2.791l-1.568 5.854a31.965 31.965 0 01-7.536-4.362l4.283-4.283zM40.248 68C42.219 52.224 55.693 40 72 40s29.781 12.224 31.752 28h-6.058C95.767 55.546 84.989 46 72 46c-12.989 0-23.767 9.546-25.694 22H54L43 82 32 68h8.248z"/><path d="M100 72c12 0 22 10 22 22s-10 22-22 22-22-10-22-22 10-22 22-22zm10 30H90v4h20zm-8-10V80h-4v12l-4-4-3 3 9 9 9-9-3-3z"/></g></svg>