<svg xmlns="http://www.w3.org/2000/svg" width="144" height="144" viewBox="34 34 76 76"><path fill="#efefef" d="M72 40c-17.673 0-32 14.327-32 32 0 17.673 14.327 32 32 32 1.005 0 1.998-.05 2.98-.142a20.594 20.888 0 01-2.49-3.87c-.163.004-.326.012-.49.012-15.464 0-28-12.536-28-28s12.536-28 28-28c15.416 0 27.918 12.458 27.996 27.856a20.594 20.888 0 013.907 2.548c.06-.794.097-1.595.097-2.404 0-17.673-14.327-32-32-32zm0 12c-11.046 0-20 8.954-20 20 0 10.481 8.065 19.07 18.327 19.92a20.594 20.888 0 01-.042-1.336 20.594 20.888 0 0120.593-20.888 20.594 20.888 0 01.989.025C90.735 59.749 82.275 52 72 52z"/><path fill="#efefef" d="M91.27 72.085c10.264 0 18.597 8.333 18.597 18.597 0 10.264-8.333 18.597-18.597 18.597-10.263 0-18.596-8.333-18.596-18.597 0-10.264 8.333-18.597 18.596-18.597zm-1.86 11.158h-5.578v14.878h5.579zm9.3 0h-5.58v14.878h5.58z"/></svg>