<svg xmlns="http://www.w3.org/2000/svg" width="144" height="144"><rect fill="#2b3e4b" width="144" height="144" rx="22"/><path fill="#a0a0a0" d="M94.828 94.416C89.019 100.33 80.935 104 72 104c-17.661 0-32-14.339-32-32s14.339-32 32-32c8.935 0 17.019 3.67 22.828 9.584a26.011 26.011 0 00-3.329 2.329C86.455 47.016 79.577 44 72 44c-15.454 0-28 12.546-28 28s12.546 28 28 28c7.577 0 14.455-3.016 19.499-7.913a26.011 26.011 0 003.329 2.329zm-8.663-8.303A19.936 19.936 0 0172 92c-11.038 0-20-8.962-20-20s8.962-20 20-20a19.936 19.936 0 0114.165 5.887A25.87 25.87 0 0082 72c0 5.2 1.53 10.046 4.165 14.113zM108 52c11.038 0 20 8.962 20 20s-8.962 20-20 20-20-8.962-20-20 8.962-20 20-20zm-2 12h-6v16h6V64zm10 0h-6v16h6V64z"/></svg>