<svg width="144" height="144" xmlns="http://www.w3.org/2000/svg"><path stroke-width=".585" fill="#efefef" stroke="#efefef" d="M58.237 91.405h-3.62L47.4 70.623l.471-.694h6.15V55.644h-8.853v35.761h-3.447V52.593h12.995q1.215 0 1.984.77t.769 1.983v14.731q0 2.803-3.77 2.803-.372 0-1.091-.025-.72-.05-1.042-.05 3.348 9.275 6.671 18.6zm18.466 0h-3.422l-1.364-8.63h-7.713l-1.364 8.63h-3.323v-.1l6.92-38.81h3.397zm-5.232-11.68l-3.398-21.03-3.422 21.03zm30.768-27.131l-5.283 38.91h-2.802l-4.216-29.263q-.025-.769-.1-2.282 0 .794-.098 2.282l-4.216 29.264H82.72l-5.282-38.91h3.422l3.298 27.998q.025.942.1 2.778-.025-.943.099-2.778l4.017-27.999h2.952l3.992 27.999q.05.942.1 2.778 0-.943.123-2.778l3.299-27.999z"/></svg>