<svg xmlns="http://www.w3.org/2000/svg" width="144" height="144"><rect fill="#5a9b4a" width="144" height="144" rx="22"/><path fill="#EFEFEF" fill-rule="evenodd" d="M72 104c-17.673 0-32-14.327-32-32 0-17.673 14.327-32 32-32 17.673 0 32 14.327 32 32 0 17.673-14.327 32-32 32zm0-4c15.464 0 28-12.536 28-28S87.464 44 72 44 44 56.536 44 72s12.536 28 28 28zm-7.071-20.929c-3.905-3.905-3.905-10.237 0-14.142L72 72l7.071-7.071c3.905 3.905 3.905 10.237 0 14.142L72 72l-7.071 7.071zM62.1 62.101c-5.468 5.467-5.468 14.331 0 19.798l-4.243 4.243c-7.81-7.81-7.81-20.474 0-28.284L62.1 62.1zm19.798 0l4.243-4.243c7.81 7.81 7.81 20.474 0 28.284L81.9 81.9c5.468-5.467 5.468-14.331 0-19.798z"/></svg>