<svg fill="none" xmlns="http://www.w3.org/2000/svg" viewBox="0 0 100 32">
	<path fill-rule="evenodd" clip-rule="evenodd"
		d="M75.2846 14.956L72.5301 10.7741L71.4042 11.8893V14.956H68.1873V0.278992H71.4042V8.82256L74.983 4.52125H78.3808L74.5808 9.02176L78.7025 14.956H75.2846ZM10.6879 8.025L10.6754 8.01561H10.6753L10.6759 8.01623L8.65238 6.85516L7.63969 7.44076V11.965L8.65363 12.5449L11.5213 10.886L10.5362 10.3211L8.62295 11.4277V7.97189L14.1724 11.159L14.1692 11.179C13.8692 12.0889 13.3019 12.8724 12.5285 13.4442C11.7388 14.0278 10.803 14.3359 9.8217 14.3359C7.29659 14.3359 5.2424 12.2736 5.2424 9.73912C5.2424 7.20462 7.29659 5.14229 9.8217 5.14229C11.7549 5.14229 13.4897 6.37359 14.1373 8.20542C14.1855 8.34128 14.2275 8.481 14.2625 8.62124L15.279 8.03001C15.2358 7.89039 15.1863 7.7513 15.1331 7.61606C14.7141 6.56079 13.9996 5.6609 13.0658 5.01332C12.11 4.35071 10.9884 4 9.8217 4C8.29426 4 6.85885 4.59687 5.77917 5.68094C4.69948 6.765 4.10449 8.20667 4.10449 9.73912C4.10449 11.2716 4.69948 12.7132 5.77927 13.7973C6.85958 14.8814 8.29499 15.4782 9.8218 15.4782C11.1739 15.4782 12.4853 14.9954 13.5149 14.1192C14.5282 13.2569 15.2126 12.0645 15.4462 10.7593L10.6879 8.025ZM43.0363 14.956H46.2533V14.9558V8.28892C46.2533 7.85254 46.2131 7.40614 46.1326 6.94972C46.0523 6.4933 45.9015 6.06663 45.6803 5.6699C45.4591 5.27317 45.144 4.95553 44.7353 4.71741C44.3263 4.47929 43.7869 4.36023 43.1168 4.36023C42.2855 4.36023 41.5384 4.53553 40.875 4.88614C40.2115 5.23675 39.6787 5.72937 39.2766 6.36423C39.1425 5.82204 38.8444 5.35268 38.3819 4.95564C37.9195 4.55891 37.2527 4.36033 36.3815 4.36033C35.4833 4.36033 34.7026 4.52593 34.0392 4.8564C33.3757 5.18718 32.8495 5.67 32.4609 6.30496V4.52124H29.5657V14.9559H32.7825V8.98356C32.97 8.43918 33.2716 8.00154 33.6872 7.67108C34.1025 7.34061 34.5181 7.17501 34.9337 7.17501C35.3358 7.17501 35.6641 7.32986 35.9189 7.63935C36.1734 7.94874 36.3009 8.44575 36.3009 9.12996V14.9559H39.5178V9.03135C39.6919 8.47852 39.9869 8.03118 40.4025 7.68871C40.8178 7.34635 41.2334 7.17511 41.649 7.17511C42.0778 7.17511 42.4162 7.33309 42.6643 7.64916C42.9123 7.96523 43.0363 8.45869 43.0363 9.13006V14.956ZM47.7001 11.8386C47.7001 11.1632 47.8942 10.5638 48.2831 10.0405C48.6717 9.51711 49.208 9.1065 49.8916 8.80838C50.5751 8.51057 51.3593 8.36135 52.2439 8.36135C52.6727 8.36135 53.0949 8.3984 53.5105 8.47196C53.9259 8.54573 54.2877 8.64977 54.5963 8.78365V8.32243C54.5963 7.75228 54.4219 7.32122 54.0735 7.02967C53.7248 6.73812 53.1954 6.59203 52.4851 6.59203C51.9087 6.59203 51.3592 6.69252 50.8365 6.8936C50.3138 7.09468 49.7641 7.38309 49.1878 7.75812L48.2227 5.70738C48.9196 5.2519 49.6468 4.91319 50.4042 4.69207C51.1614 4.47096 51.9624 4.36035 52.8068 4.36035C54.3882 4.36035 55.6182 4.72922 56.4962 5.46675C57.374 6.20438 57.8131 7.28407 57.8131 8.70622V11.3928C57.8131 11.7088 57.8634 11.9328 57.9639 12.0644C58.0644 12.1964 58.2353 12.2686 58.4766 12.2818V14.9558C58.2083 15.0227 57.9603 15.0664 57.7327 15.0865C57.5046 15.1066 57.3035 15.1166 57.1295 15.1166C56.5264 15.1166 56.0705 14.996 55.7624 14.7547C55.4538 14.5135 55.2528 14.1852 55.1592 13.7696L55.0788 13.3071C54.623 13.9102 54.0701 14.3696 53.4201 14.6843C52.7698 14.9991 52.0896 15.1568 51.3794 15.1568C50.6823 15.1568 50.0555 15.0141 49.4994 14.7296C48.943 14.445 48.5042 14.0507 48.1826 13.5474C47.8609 13.0442 47.7 12.4743 47.7 11.8384L47.7001 11.8386ZM54.0936 12.2197C54.241 12.1028 54.3616 11.9693 54.4555 11.8197C54.5491 11.6702 54.5963 11.537 54.5963 11.4198V10.5025C54.328 10.3984 54.0264 10.3171 53.6916 10.2587C53.3564 10.2003 53.0482 10.1707 52.7668 10.1707C52.1903 10.1707 51.7077 10.3012 51.3191 10.5612C50.9302 10.8213 50.736 11.1531 50.736 11.5562C50.736 11.7773 50.8029 11.9887 50.9371 12.1904C51.0709 12.3921 51.2554 12.5482 51.49 12.6588C51.7243 12.7694 52.0026 12.8246 52.3243 12.8246C52.646 12.8246 52.9677 12.7693 53.2893 12.6588C53.611 12.5482 53.879 12.4018 54.0935 12.2196L54.0936 12.2197ZM64.7297 7.52731C65.3596 7.27938 66.0633 7.15532 66.8408 7.15532V4.26019C66.7736 4.24694 66.7066 4.24005 66.6397 4.24005H66.318C65.6878 4.25351 65.0847 4.46116 64.5085 4.86332C63.9321 5.26537 63.4562 5.82175 63.081 6.53205V4.52148H60.1456V14.9563H63.3626V8.62307C63.644 8.14057 64.0996 7.77545 64.7297 7.52731ZM81.7589 14.7298C82.4558 15.0143 83.2534 15.157 84.1515 15.157L84.1514 15.1572C84.9556 15.1572 85.6895 15.0331 86.353 14.7852C87.0164 14.5374 87.5894 14.2091 88.072 13.8001C88.5545 13.3913 88.9296 12.9123 89.1979 12.3625L86.4636 11.5784C86.3159 11.9537 86.0312 12.2553 85.6091 12.4831C85.1869 12.7111 84.7275 12.8248 84.2319 12.8248C83.8564 12.8248 83.4946 12.7469 83.1461 12.5905C82.7975 12.4339 82.5094 12.1996 82.2816 11.8867C82.0535 11.5741 81.9263 11.19 81.8996 10.7338H89.7005C89.7138 10.6015 89.7307 10.446 89.7508 10.2673C89.7709 10.0888 89.781 9.90664 89.781 9.72131C89.781 8.78135 89.563 7.90118 89.1275 7.08059C88.6918 6.26 88.0519 5.60125 87.2075 5.10487C86.363 4.60849 85.3445 4.36035 84.1514 4.36035C82.9583 4.36035 81.9399 4.61141 81.0954 5.11343C80.251 5.61544 79.6042 6.2792 79.1553 7.1048C78.7059 7.9304 78.4817 8.84521 78.4817 9.84925C78.4817 10.5516 78.6089 11.2242 78.8637 11.867C79.1182 12.5097 79.4901 13.0765 79.9796 13.5668C80.4687 14.0572 81.0619 14.4448 81.7589 14.7298ZM86.4033 8.7634H81.8394C81.8796 8.32452 82.0002 7.95001 82.2013 7.64031C82.4023 7.33061 82.6703 7.08842 83.0055 6.91405C83.3403 6.73969 83.7023 6.65235 84.0912 6.65235C84.5201 6.65235 84.8954 6.73969 85.2171 6.91405C85.5388 7.08842 85.8068 7.33374 86.0213 7.65012C86.2355 7.9664 86.3632 8.33746 86.4033 8.7634ZM97.9442 14.373C97.6627 14.5071 97.3442 14.6344 96.9892 14.755C96.6339 14.8756 96.2654 14.9727 95.8834 15.0466C95.5014 15.12 95.116 15.1572 94.7274 15.1572C94.1911 15.1572 93.702 15.068 93.2596 14.8898C92.8173 14.7114 92.462 14.4177 92.194 14.008C91.9257 13.5986 91.7918 13.0571 91.7918 12.3832V6.97423H90.4448V4.52133H91.7918V1.14349H95.0088V4.52123H97.14V6.97413H95.0088V11.239C95.022 11.5928 95.1093 11.845 95.2702 11.9958C95.431 12.1465 95.6522 12.2216 95.9336 12.2216C96.1749 12.2216 96.4193 12.1783 96.6675 12.0909C96.9154 12.0039 97.14 11.9269 97.3411 11.8597L97.9442 14.3729V14.373ZM46.2531 17.043H43.0361V24.8439C43.0361 25.7556 43.284 26.4558 43.78 26.945C44.2758 27.4345 44.9864 27.6788 45.9112 27.6788C46.3668 27.6788 46.8562 27.6185 47.379 27.4979C47.9018 27.3773 48.3642 27.2299 48.7663 27.0556L48.3441 24.6228C48.1832 24.7303 47.9988 24.8106 47.7911 24.8641C47.5832 24.9178 47.3857 24.9445 47.198 24.9445C46.8895 24.9445 46.6552 24.8508 46.4943 24.663C46.3335 24.4754 46.2531 24.1603 46.2531 23.718V17.043ZM49.2084 24.3604C49.2084 23.685 49.4025 23.0856 49.7915 22.5623C50.18 22.0389 50.7163 21.6283 51.3999 21.3302C52.0834 21.0324 52.8676 20.8831 53.7522 20.8831C54.181 20.8831 54.6032 20.9202 55.0188 20.9938C55.4342 21.0675 55.796 21.1716 56.1046 21.3054V20.8442C56.1046 20.2741 55.9302 19.843 55.5818 19.5515C55.2331 19.2599 54.7037 19.1138 53.9934 19.1138C53.417 19.1138 52.8675 19.2143 52.3448 19.4154C51.8221 19.6165 51.2724 19.9049 50.6961 20.2799L49.731 18.2292C50.4279 17.7737 51.1551 17.435 51.9125 17.2139C52.6697 16.9928 53.4707 16.8821 54.3151 16.8821C55.8965 16.8821 57.1265 17.251 58.0046 17.9885C58.8823 18.7262 59.3214 19.8059 59.3214 21.228V23.9145C59.3214 24.2306 59.3717 24.4545 59.4722 24.5862C59.5727 24.7182 59.7436 24.7904 59.9849 24.8036V27.4776C59.7166 27.5445 59.4687 27.5882 59.241 27.6082C59.0129 27.6284 58.8118 27.6384 58.6378 27.6384C58.0347 27.6384 57.5788 27.5178 57.2707 27.2765C56.9621 27.0353 56.7611 26.707 56.6675 26.2914L56.5871 25.8289C56.1313 26.432 55.5784 26.8914 54.9284 27.2061C54.2781 27.5209 53.5979 27.6786 52.8877 27.6786C52.1906 27.6786 51.5638 27.5359 51.0077 27.2514C50.4513 26.9668 50.0125 26.5725 49.6909 26.0692C49.3692 25.566 49.2083 24.9961 49.2083 24.3602L49.2084 24.3604ZM55.6019 24.7415C55.7493 24.6246 55.8699 24.4911 55.9638 24.3415C56.0574 24.192 56.1046 24.0588 56.1046 23.9416V23.0243C55.8363 22.9202 55.5347 22.8389 55.1999 22.7805C54.8647 22.7221 54.5565 22.6925 54.2751 22.6925C53.6986 22.6925 53.216 22.823 52.8274 23.083C52.4385 23.3431 52.2444 23.6749 52.2444 24.078C52.2444 24.2991 52.3112 24.5105 52.4454 24.7122C52.5792 24.9139 52.7637 25.07 52.9983 25.1806C53.2326 25.2912 53.5109 25.3464 53.8326 25.3464C54.1543 25.3464 54.476 25.2911 54.7976 25.1806C55.1193 25.07 55.3873 24.9236 55.6018 24.7414L55.6019 24.7415ZM63.6884 27.2421C64.3852 27.533 65.1828 27.6788 66.081 27.6788L66.0807 27.6789C66.8981 27.6789 67.6288 27.5548 68.2722 27.3069C68.9156 27.0591 69.4715 26.7308 69.9409 26.3218C70.4099 25.913 70.7785 25.434 71.0468 24.8842L67.9304 23.9392C67.8231 24.1271 67.6723 24.3012 67.4781 24.462C67.2836 24.6229 67.069 24.7469 66.8347 24.834C66.6 24.9213 66.3422 24.9646 66.0606 24.9646C65.6315 24.9646 65.2363 24.8537 64.8744 24.6316C64.5125 24.4095 64.2275 24.0929 64.0199 23.6813C63.8119 23.2698 63.7083 22.7961 63.7083 22.2607C63.7083 21.7254 63.8119 21.2583 64.0199 20.86C64.2276 20.4616 64.5091 20.1481 64.8644 19.9194C65.2194 19.6907 65.6183 19.5763 66.0606 19.5763C66.4492 19.5763 66.8011 19.6668 67.1162 19.8477C67.431 20.0287 67.6892 20.2799 67.8903 20.6016L71.0267 19.6567C70.6111 18.8257 69.9844 18.1556 69.1469 17.6461C68.3091 17.1369 67.2802 16.882 66.0607 16.882C64.8812 16.882 63.8693 17.1302 63.0248 17.6263C62.1805 18.1226 61.5336 18.7776 61.0847 19.5913C60.6354 20.4049 60.4111 21.2949 60.4111 22.2606C60.4111 22.9886 60.5383 23.6765 60.7932 24.325C61.0477 24.9734 61.4195 25.5488 61.909 26.0515C62.3981 26.5541 62.9913 26.9512 63.6884 27.2421ZM77.3561 27.6788C76.458 27.6788 75.6604 27.5361 74.9635 27.2516C74.2665 26.9666 73.6733 26.579 73.1842 26.0886C72.6947 25.5983 72.3228 25.0315 72.0683 24.3888C71.8135 23.746 71.6863 23.0734 71.6863 22.371C71.6863 21.367 71.9105 20.4522 72.3598 19.6266C72.8087 18.801 73.4556 18.1372 74.3 17.6352C75.1445 17.1332 76.1629 16.8821 77.356 16.8821C78.5491 16.8821 79.5676 17.1303 80.412 17.6267C81.2565 18.123 81.8964 18.7818 82.3321 19.6024C82.7676 20.423 82.9856 21.3031 82.9856 22.2431C82.9856 22.4284 82.9754 22.6106 82.9554 22.7891C82.9353 22.9678 82.9184 23.1233 82.9051 23.2556H75.1042C75.1309 23.7118 75.2581 24.0959 75.4862 24.4085C75.714 24.7214 76.0021 24.9557 76.3507 25.1122C76.6991 25.2687 77.061 25.3466 77.4365 25.3466C77.9321 25.3466 78.3914 25.2329 78.8136 25.0049C79.2358 24.7771 79.5205 24.4755 79.6681 24.1002L82.4025 24.8842C82.1342 25.4341 81.7591 25.9131 81.2766 26.3218C80.7939 26.7309 80.221 27.0592 79.5575 27.307C78.8941 27.5549 78.1602 27.679 77.356 27.679L77.3561 27.6788ZM75.044 21.2852H79.6079C79.5678 20.8592 79.4401 20.4882 79.2259 20.1719C79.0114 19.8555 78.7434 19.6102 78.4217 19.4358C78.1 19.2615 77.7247 19.1741 77.2958 19.1741C76.9069 19.1741 76.5449 19.2615 76.2101 19.4358C75.8749 19.6102 75.6069 19.8524 75.4059 20.1621C75.2048 20.4718 75.0842 20.8463 75.044 21.2852ZM32.3953 18.6441C33.3777 17.4915 34.824 16.7629 36.4369 16.7629V16.763C39.3964 16.763 41.7955 19.2156 41.7955 22.2411C41.7955 25.2665 39.3964 27.7191 36.4369 27.7191C35.0245 27.7191 33.7401 27.1603 32.7828 26.2475V31.7607H29.5658V19.1273H29.5657V17.0434H32.3953V18.6441ZM32.7141 22.241C32.7141 23.7476 33.9242 24.969 35.417 24.969C36.9098 24.969 38.1199 23.7476 38.1199 22.241C38.1199 20.7343 36.9098 19.5129 35.417 19.5129C33.9242 19.5129 32.7141 20.7343 32.7141 22.241Z"
		fill="white"></path>
	<path
		d="M22.5217 16.5218C19.4961 16.5218 17.0435 18.9745 17.0435 22V27.4783H22.5217C25.5473 27.4783 28 25.0256 28 22C28 18.9745 25.5473 16.5218 22.5217 16.5218Z"
		fill="white"></path>
	<path
		d="M28.0001 13.3913C28.0001 14.5439 27.0658 15.4782 25.9131 15.4782C25.4897 15.4782 25.0957 15.3522 24.7667 15.1355C24.4377 14.9187 24.1736 14.6113 24.01 14.2489L22.4989 10.9006C22.458 10.81 22.367 10.7469 22.2611 10.7469C22.1552 10.7469 22.0641 10.8101 22.0233 10.9008L20.5121 14.2489C20.185 14.9738 19.4559 15.4782 18.6089 15.4782C17.4564 15.4782 16.522 14.5439 16.522 13.3913C16.522 12.9678 16.6481 12.5738 16.8648 12.2448C17.0816 11.9158 17.389 11.6518 17.7514 11.4882L21.0997 9.97703C21.1903 9.93613 21.2533 9.84503 21.2533 9.73912C21.2533 9.63321 21.1902 9.54211 21.0995 9.50131L17.7513 7.99015C17.0264 7.66302 16.5219 6.93394 16.5219 6.08695C16.5219 4.93443 17.4563 4 18.6088 4C19.0323 4 19.4264 4.12616 19.7554 4.34289C20.0844 4.55962 20.3484 4.86692 20.512 5.22942L22.0232 8.57773C22.0641 8.6683 22.1552 8.73133 22.261 8.73133C22.3668 8.73133 22.4581 8.6682 22.4989 8.57752L24.01 5.22942C24.3372 4.50452 25.0662 4 25.9131 4C27.0658 4 28.0001 4.93443 28.0001 6.08695C28.0001 6.51039 27.8739 6.90441 27.6572 7.23352C27.4405 7.56253 27.1332 7.82664 26.7708 7.99015L23.4227 9.50131C23.332 9.54211 23.2688 9.63321 23.2688 9.73912C23.2688 9.85807 23.3447 9.94187 23.4225 9.97703L26.7708 11.4882C27.4956 11.8153 28.0001 12.5444 28.0001 13.3913Z"
		fill="white"></path>
	<path
		d="M5.30445 17.0435C4.58403 17.0435 4.0001 17.6274 4.0001 18.3478C4.0001 19.0682 4.58403 19.6521 5.30445 19.6521H11.8701L4.94894 24.1634C4.37763 24.5358 4 25.1803 4 25.913C4 27.0656 4.93433 28 6.08695 28C6.81968 28 7.46413 27.6222 7.83644 27.051L12.3479 20.13V26.6956C12.3479 27.416 12.9318 28 13.6523 28C14.3727 28 14.9566 27.416 14.9566 26.6956V17.0435H5.30445Z"
		fill="white"></path>
</svg>