<svg viewBox="4 4 24 24" fill="none" version="1.1" xmlns="http://www.w3.org/2000/svg">
 <g fill="#fff">
  <path d="m10.688 8.025-0.0125-0.00939h-1e-4l6e-4 6.2e-4 -2.0235-1.1611-1.0127 0.5856v4.5242l1.0139 0.5799 2.8677-1.6589-0.9851-0.5649-1.9132 1.1066v-3.4558l5.5494 3.1871-0.0032 0.02c-0.3 0.9099-0.8673 1.6934-1.6407 2.2652-0.7897 0.5836-1.7255 0.8917-2.7068 0.8917-2.5251 0-4.5793-2.0623-4.5793-4.5968 0-2.5345 2.0542-4.5968 4.5793-4.5968 1.9332 0 3.668 1.2313 4.3156 3.0631 0.0482 0.13586 0.0902 0.27558 0.1252 0.41582l1.0165-0.59123c-0.0432-0.13962-0.0927-0.27871-0.1459-0.41395-0.419-1.0553-1.1335-1.9552-2.0673-2.6027-0.9558-0.66261-2.0774-1.0133-3.2441-1.0133-1.5274 0-2.9628 0.59687-4.0425 1.6809-1.0797 1.0841-1.6747 2.5257-1.6747 4.0582 0 1.5325 0.59499 2.9741 1.6748 4.0582 1.0803 1.0841 2.5157 1.6809 4.0425 1.6809 1.3521 0 2.6635-0.4828 3.6931-1.359 1.0133-0.8623 1.6977-2.0547 1.9313-3.3599z" clip-rule="evenodd" fill-rule="evenodd"/>
  <path d="m22.522 16.522c-3.0256 0-5.4782 2.4527-5.4782 5.4782v5.4783h5.4782c3.0256 0 5.4783-2.4527 5.4783-5.4783 0-3.0255-2.4527-5.4782-5.4783-5.4782z"/>
  <path d="m28 13.391c0 1.1526-0.9343 2.0869-2.087 2.0869-0.4234 0-0.8174-0.126-1.1464-0.3427-0.329-0.2168-0.5931-0.5242-0.7567-0.8866l-1.5111-3.3483c-0.0409-0.0906-0.1319-0.1537-0.2378-0.1537s-0.197 0.0632-0.2378 0.1539l-1.5112 3.3481c-0.3271 0.7249-1.0562 1.2293-1.9032 1.2293-1.1525 0-2.0869-0.9343-2.0869-2.0869 0-0.4235 0.1261-0.8175 0.3428-1.1465 0.2168-0.329 0.5242-0.593 0.8866-0.7566l3.3483-1.5112c0.0906-0.0409 0.1536-0.132 0.1536-0.23791s-0.0631-0.19701-0.1538-0.23781l-3.3482-1.5112c-0.7249-0.32713-1.2294-1.0562-1.2294-1.9032 0-1.1525 0.9344-2.087 2.0869-2.087 0.4235 0 0.8176 0.12616 1.1466 0.34289s0.593 0.52403 0.7566 0.88653l1.5112 3.3483c0.0409 0.09057 0.132 0.1536 0.2378 0.1536s0.1971-0.06313 0.2379-0.15381l1.5111-3.3481c0.3272-0.7249 1.0562-1.2294 1.9031-1.2294 1.1527 0 2.087 0.93443 2.087 2.087 0 0.42344-0.1262 0.81746-0.3429 1.1466-0.2167 0.32901-0.524 0.59312-0.8864 0.75663l-3.3481 1.5112c-0.0907 0.0408-0.1539 0.1319-0.1539 0.23781 0 0.11895 0.0759 0.20275 0.1537 0.23791l3.3483 1.5112c0.7248 0.3271 1.2293 1.0562 1.2293 1.9031z"/>
  <path d="m5.3044 17.044c-0.72042 0-1.3044 0.5839-1.3044 1.3043s0.58393 1.3043 1.3044 1.3043h6.5656l-6.9212 4.5113c-0.57131 0.3724-0.94894 1.0169-0.94894 1.7496 0 1.1526 0.93433 2.087 2.087 2.087 0.73273 0 1.3772-0.3778 1.7495-0.949l4.5115-6.921v6.5656c0 0.7204 0.5839 1.3044 1.3044 1.3044 0.7204 0 1.3043-0.584 1.3043-1.3044v-9.6521z"/>
 </g>
</svg>
